<svg width="703" height="300" viewBox="0 0 703 300" fill="none" xmlns="http://www.w3.org/2000/svg">
<g clip-path="url(#clip0_12_15)">
<path d="M174.433 277.078L166.301 290.817C159.053 303.061 140.948 303.061 133.7 290.817L125.568 277.078C119.261 266.422 116.108 261.096 111.042 258.148C105.977 255.202 99.5992 255.092 86.844 254.873C68.0136 254.548 56.2036 253.394 46.2989 249.292C27.9217 241.679 13.3211 227.08 5.70902 208.702C-4.76837e-07 194.92 0 177.446 0 142.501V127.5C0 78.3988 -9.53674e-07 53.848 11.052 35.8128C17.2363 25.721 25.721 17.2363 35.8128 11.052C53.8479 -9.53674e-07 78.3988 0 127.5 0H172.501C221.602 0 246.152 -9.53674e-07 264.188 11.052C274.281 17.2363 282.765 25.721 288.949 35.8128C300.001 53.848 300.001 78.3988 300.001 127.5V142.501C300.001 177.446 300.001 194.92 294.292 208.702C286.68 227.08 272.08 241.679 253.702 249.292C243.797 253.394 231.988 254.548 213.157 254.873C200.401 255.092 194.024 255.202 188.959 258.148C183.893 261.094 180.739 266.422 174.433 277.078Z" fill="#936EFF"/>
<path d="M225.004 150C225.004 158.285 218.288 165 210.004 165C201.719 165 195.004 158.285 195.004 150C195.004 141.715 201.719 135 210.004 135C218.288 135 225.004 141.715 225.004 150Z" fill="white"/>
<path d="M164.996 150C164.996 158.285 158.281 165 149.996 165C141.712 165 134.996 158.285 134.996 150C134.996 141.715 141.712 135 149.996 135C158.281 135 164.996 141.715 164.996 150Z" fill="white"/>
<path d="M105 150C105 158.285 98.2843 165 90.0001 165C81.7158 165 75 158.285 75 150C75 141.715 81.7158 135 90.0001 135C98.2843 135 105 141.715 105 150Z" fill="white"/>
</g>
<path d="M360.761 103.909L384.989 177.182H385.943L410.125 103.909H428.67L395.852 197H375.034L342.261 103.909H360.761ZM453.045 198.409C448.621 198.409 444.636 197.621 441.091 196.045C437.576 194.439 434.788 192.076 432.727 188.955C430.697 185.833 429.682 181.985 429.682 177.409C429.682 173.47 430.409 170.212 431.864 167.636C433.318 165.061 435.303 163 437.818 161.455C440.333 159.909 443.167 158.742 446.318 157.955C449.5 157.136 452.788 156.545 456.182 156.182C460.273 155.758 463.591 155.379 466.136 155.045C468.682 154.682 470.53 154.136 471.682 153.409C472.864 152.652 473.455 151.485 473.455 149.909V149.636C473.455 146.212 472.439 143.561 470.409 141.682C468.379 139.803 465.455 138.864 461.636 138.864C457.606 138.864 454.409 139.742 452.045 141.5C449.712 143.258 448.136 145.333 447.318 147.727L431.955 145.545C433.167 141.303 435.167 137.758 437.955 134.909C440.742 132.03 444.152 129.879 448.182 128.455C452.212 127 456.667 126.273 461.545 126.273C464.909 126.273 468.258 126.667 471.591 127.455C474.924 128.242 477.97 129.545 480.727 131.364C483.485 133.152 485.697 135.591 487.364 138.682C489.061 141.773 489.909 145.636 489.909 150.273V197H474.091V187.409H473.545C472.545 189.348 471.136 191.167 469.318 192.864C467.53 194.53 465.273 195.879 462.545 196.909C459.848 197.909 456.682 198.409 453.045 198.409ZM457.318 186.318C460.621 186.318 463.485 185.667 465.909 184.364C468.333 183.03 470.197 181.273 471.5 179.091C472.833 176.909 473.5 174.53 473.5 171.955V163.727C472.985 164.152 472.106 164.545 470.864 164.909C469.652 165.273 468.288 165.591 466.773 165.864C465.258 166.136 463.758 166.379 462.273 166.591C460.788 166.803 459.5 166.985 458.409 167.136C455.955 167.47 453.758 168.015 451.818 168.773C449.879 169.53 448.348 170.591 447.227 171.955C446.106 173.288 445.545 175.015 445.545 177.136C445.545 180.167 446.652 182.455 448.864 184C451.076 185.545 453.894 186.318 457.318 186.318ZM526.545 198.409C522.121 198.409 518.136 197.621 514.591 196.045C511.076 194.439 508.288 192.076 506.227 188.955C504.197 185.833 503.182 181.985 503.182 177.409C503.182 173.47 503.909 170.212 505.364 167.636C506.818 165.061 508.803 163 511.318 161.455C513.833 159.909 516.667 158.742 519.818 157.955C523 157.136 526.288 156.545 529.682 156.182C533.773 155.758 537.091 155.379 539.636 155.045C542.182 154.682 544.03 154.136 545.182 153.409C546.364 152.652 546.955 151.485 546.955 149.909V149.636C546.955 146.212 545.939 143.561 543.909 141.682C541.879 139.803 538.955 138.864 535.136 138.864C531.106 138.864 527.909 139.742 525.545 141.5C523.212 143.258 521.636 145.333 520.818 147.727L505.455 145.545C506.667 141.303 508.667 137.758 511.455 134.909C514.242 132.03 517.652 129.879 521.682 128.455C525.712 127 530.167 126.273 535.045 126.273C538.409 126.273 541.758 126.667 545.091 127.455C548.424 128.242 551.47 129.545 554.227 131.364C556.985 133.152 559.197 135.591 560.864 138.682C562.561 141.773 563.409 145.636 563.409 150.273V197H547.591V187.409H547.045C546.045 189.348 544.636 191.167 542.818 192.864C541.03 194.53 538.773 195.879 536.045 196.909C533.348 197.909 530.182 198.409 526.545 198.409ZM530.818 186.318C534.121 186.318 536.985 185.667 539.409 184.364C541.833 183.03 543.697 181.273 545 179.091C546.333 176.909 547 174.53 547 171.955V163.727C546.485 164.152 545.606 164.545 544.364 164.909C543.152 165.273 541.788 165.591 540.273 165.864C538.758 166.136 537.258 166.379 535.773 166.591C534.288 166.803 533 166.985 531.909 167.136C529.455 167.47 527.258 168.015 525.318 168.773C523.379 169.53 521.848 170.591 520.727 171.955C519.606 173.288 519.045 175.015 519.045 177.136C519.045 180.167 520.152 182.455 522.364 184C524.576 185.545 527.394 186.318 530.818 186.318ZM596.409 156.091V197H579.955V127.182H595.682V139.045H596.5C598.106 135.136 600.667 132.03 604.182 129.727C607.727 127.424 612.106 126.273 617.318 126.273C622.136 126.273 626.333 127.303 629.909 129.364C633.515 131.424 636.303 134.409 638.273 138.318C640.273 142.227 641.258 146.97 641.227 152.545V197H624.773V155.091C624.773 150.424 623.561 146.773 621.136 144.136C618.742 141.5 615.424 140.182 611.182 140.182C608.303 140.182 605.742 140.818 603.5 142.091C601.288 143.333 599.545 145.136 598.273 147.5C597.03 149.864 596.409 152.727 596.409 156.091ZM657.955 197V127.182H674.409V197H657.955ZM666.227 117.273C663.621 117.273 661.379 116.409 659.5 114.682C657.621 112.924 656.682 110.818 656.682 108.364C656.682 105.879 657.621 103.773 659.5 102.045C661.379 100.288 663.621 99.4091 666.227 99.4091C668.864 99.4091 671.106 100.288 672.955 102.045C674.833 103.773 675.773 105.879 675.773 108.364C675.773 110.818 674.833 112.924 672.955 114.682C671.106 116.409 668.864 117.273 666.227 117.273Z" fill="white"/>
<defs>
<clipPath id="clip0_12_15">
<rect width="300" height="300" fill="white"/>
</clipPath>
</defs>
</svg>
